# xmcd
#
# Track frame offsets:
#      150
#      15519
#      29656
#      45842
#      62033
#      80033
#      94558
#      109849
#      129406
#      151482
#      166694
#      183013
#      199160
# 
# Disc length: 2871 seconds
#
# Revision: 2
# Processed by: cddbd v1.5PL3 Copyright (c) Steve Scherf et al.
#
# Submitted via: FreeRIP 1.21
#
DISCID=990b350d
DTITLE=Olsen Brothers - Wings Of Love
DYEAR=1900
DGENRE=country
TTITLE0=Fly On The Wings Of Love
TTITLE1=
TTITLE2=
TTITLE3=
TTITLE4=
TTITLE5=
TTITLE6=
TTITLE7=
TTITLE8=
TTITLE9=
TTITLE10=
TTITLE11=
TTITLE12=
EXTD=
EXTT0=
EXTT1=
EXTT2=
EXTT3=
EXTT4=
EXTT5=
EXTT6=
EXTT7=
EXTT8=
EXTT9=
EXTT10=
EXTT11=
EXTT12=
PLAYORDER=
